# This file uses centimeters as units for non-parametric coordinates.

g default
v -1.517657 0.000740 0.998403
v 1.275818 0.000740 0.998403
v 1.275818 0.000740 0.000555
v 1.275818 0.397458 0.000555
v 1.255824 0.397459 0.998402
v -1.497662 0.397459 0.998403
v 1.255823 4.383845 0.998403
v -1.497662 4.383845 0.998403
v -1.497662 4.383845 0.025678
v 1.255823 4.383845 0.025678
v -1.517657 4.412262 0.998403
v 1.275818 4.412262 0.998403
v 1.275818 4.412262 0.000555
v -1.517657 4.412262 0.000555
v 1.275818 0.397458 0.998403
v 1.255823 0.397458 0.025678
v -1.517657 0.397458 0.998403
v -1.497662 0.397458 0.025678
v -1.517657 0.397458 0.000555
v -1.517657 0.000740 0.000555
v 1.275818 4.383845 0.998403
v -1.517657 4.383845 0.998403
v -1.517657 4.412262 1.036457
v 1.275818 4.412262 1.036457
v -1.517657 4.383845 1.036457
v -1.497662 4.383845 1.036457
v 1.255823 4.383845 1.036457
v 1.275818 4.383845 1.036457
v -1.517657 0.000740 1.036801
v 1.275818 0.000740 1.036801
v 1.275818 0.397458 1.036801
v 1.255824 0.397459 1.036800
v -1.497662 0.397459 1.036801
v -1.517657 0.397458 1.036801
v -1.517010 3.385134 0.819331
v 1.275184 3.385134 0.819331
v -1.517010 3.413186 0.819331
v 1.275184 3.413186 0.819331
v -1.517010 3.413186 0.021273
v 1.275184 3.413186 0.021273
v -1.517010 3.385134 0.021273
v 1.275184 3.385134 0.021273
v -1.517010 2.385134 0.819331
v 1.275184 2.385134 0.819331
v -1.517010 2.413186 0.819331
v 1.275184 2.413186 0.819331
v -1.517010 2.413186 0.021273
v 1.275184 2.413186 0.021273
v -1.517010 2.385134 0.021273
v 1.275184 2.385134 0.021273
v -1.517010 1.385134 0.819331
v 1.275184 1.385134 0.819331
v -1.517010 1.413186 0.819331
v 1.275184 1.413186 0.819331
v -1.517010 1.413186 0.021273
v 1.275184 1.413186 0.021273
v -1.517010 1.385134 0.021273
v 1.275184 1.385134 0.021273
vt 0.102027 0.532612
vt 0.367998 0.532612
vt 0.367998 0.626571
vt 0.102027 0.626571
vt 0.369930 0.522515
vt 0.100095 0.522515
vt 0.100096 0.426129
vt 0.369930 0.426128
vt 0.473331 0.385669
vt 0.473331 0.000000
vt 0.567438 0.000000
vt 0.567438 0.385669
vt 0.003709 0.038321
vt 0.100096 0.038321
vt 0.003709 0.426128
vt 0.003709 0.423384
vt 0.468248 0.423384
vt 0.466316 0.423384
vt 0.466316 0.038321
vt 0.468248 0.038321
vt 0.833828 0.479776
vt 0.567438 0.479776
vt 0.833828 0.385669
vt 0.833828 0.000000
vt 0.369930 0.038321
vt 0.835763 0.622125
vt 0.565504 0.622125
vt 0.565504 0.525587
vt 0.835763 0.525587
vt 0.100096 0.000000
vt 0.369930 0.000000
vt 0.927936 0.000000
vt 0.927936 0.385669
vt 0.466316 0.426129
vt 0.001778 0.423384
vt 0.001778 0.038321
vt 0.100096 0.526191
vt 0.369930 0.526191
vt 0.369930 0.528936
vt 0.367998 0.528936
vt 0.102027 0.528936
vt 0.100096 0.528936
vt 0.372675 0.522515
vt 0.372675 0.526191
vt 0.369930 0.532612
vt 0.100096 0.532611
vt 0.097351 0.522515
vt 0.097351 0.526191
vt 0.003709 0.000000
vt 0.835763 0.521872
vt 0.565504 0.521872
vt 0.565504 0.483491
vt 0.567438 0.483491
vt 0.833828 0.483491
vt 0.835763 0.483491
vt 0.466316 0.000000
vt 0.000000 0.038321
vt 0.000000 0.000000
vt 0.565504 0.479776
vt 0.565504 0.483491
vt 0.835763 0.479776
vt 0.835763 0.483491
vt 0.470025 0.000000
vt 0.470025 0.038321
vt 0.325932 0.811119
vt 0.645135 0.811119
vt 0.645135 0.814326
vt 0.325932 0.814326
vt 0.645135 0.905560
vt 0.325932 0.905559
vt 0.645135 0.908766
vt 0.325932 0.908766
vt 0.645135 1.000000
vt 0.325932 1.000000
vt 0.648342 0.814326
vt 0.648342 0.905560
vt 0.322726 0.905560
vt 0.322726 0.814326
vt 0.003336 0.626439
vt 0.322538 0.626875
vt 0.322534 0.630082
vt 0.003331 0.629646
vt 0.322409 0.721315
vt 0.003207 0.720879
vt 0.322405 0.724522
vt 0.003202 0.724086
vt 0.322280 0.815755
vt 0.003078 0.815320
vt 0.325740 0.630086
vt 0.325616 0.721319
vt 0.000000 0.720875
vt 0.000125 0.629641
vt 0.372677 0.621866
vt 0.691880 0.622301
vt 0.691875 0.625508
vt 0.372673 0.625072
vt 0.691751 0.716742
vt 0.372548 0.716306
vt 0.691746 0.719949
vt 0.372544 0.719513
vt 0.691622 0.811182
vt 0.372419 0.810746
vt 0.695082 0.625513
vt 0.694957 0.716746
vt 0.369341 0.716302
vt 0.369466 0.625068
vn 0.000000 -1.000000 0.000000
vn 0.000000 -1.000000 0.000000
vn 0.000000 -1.000000 0.000000
vn 0.000000 -1.000000 0.000000
vn 0.000000 1.000000 0.000000
vn 0.000000 1.000000 0.000000
vn 0.000000 1.000000 0.000000
vn 0.000000 1.000000 0.000000
vn -1.000000 -0.000000 0.000000
vn -1.000000 -0.000000 0.000000
vn -1.000000 -0.000000 0.000000
vn -1.000000 -0.000000 0.000000
vn 1.000000 0.000000 0.000000
vn 1.000000 0.000000 0.000000
vn 1.000000 0.000000 0.000000
vn 1.000000 0.000000 0.000000
vn 1.000000 0.000000 0.000000
vn 0.000000 0.000000 1.000000
vn 0.000000 0.000000 1.000000
vn 0.000000 0.000000 1.000000
vn 0.000000 0.000000 1.000000
vn -0.000000 1.000000 -0.000000
vn -0.000000 1.000000 -0.000000
vn -0.000000 1.000000 -0.000000
vn -0.000000 1.000000 -0.000000
vn 0.000000 0.000000 1.000000
vn 0.000000 0.000000 1.000000
vn 0.000000 0.000000 1.000000
vn 0.000000 0.000000 1.000000
vn 0.000000 0.000000 -1.000000
vn 0.000000 0.000000 -1.000000
vn 0.000000 0.000000 -1.000000
vn 0.000000 0.000000 -1.000000
vn 0.000000 -1.000000 0.000000
vn 0.000000 -1.000000 0.000000
vn 0.000000 -1.000000 0.000000
vn 0.000000 -1.000000 0.000000
vn 0.000000 0.000000 -1.000000
vn 0.000000 0.000000 -1.000000
vn 0.000000 0.000000 -1.000000
vn 0.000000 0.000000 -1.000000
vn 1.000000 0.000000 0.000000
vn 1.000000 0.000000 0.000000
vn 1.000000 0.000000 0.000000
vn 1.000000 0.000000 0.000000
vn -1.000000 0.000000 0.000000
vn -1.000000 0.000000 0.000000
vn -1.000000 0.000000 0.000000
vn -1.000000 0.000000 0.000000
vn -1.000000 0.000000 0.000000
vn -0.000018 -0.000000 1.000000
vn -0.000018 -0.000000 1.000000
vn -0.000018 -0.000000 1.000000
vn -0.000018 -0.000000 1.000000
vn 0.000000 0.000000 1.000000
vn 0.000000 0.000000 1.000000
vn 0.000000 0.000000 1.000000
vn 0.000000 0.000000 1.000000
vn 0.000000 0.000000 1.000000
vn 0.000000 0.000000 1.000000
vn 0.000000 1.000000 0.000000
vn 0.000000 1.000000 0.000000
vn 0.000000 1.000000 0.000000
vn 0.000000 1.000000 0.000000
vn -1.000000 0.000000 0.000000
vn -1.000000 0.000000 0.000000
vn -1.000000 0.000000 0.000000
vn -1.000000 0.000000 0.000000
vn 0.000000 -1.000000 0.000000
vn 0.000000 -1.000000 0.000000
vn 0.000000 -1.000000 0.000000
vn 0.000000 -1.000000 0.000000
vn 0.000000 -1.000000 0.000000
vn 0.000000 -1.000000 0.000000
vn 0.000000 -1.000000 0.000000
vn 0.000000 -1.000000 0.000000
vn 0.000000 -1.000000 0.000000
vn 0.000000 -1.000000 0.000000
vn 0.000000 -1.000000 0.000000
vn 0.000000 -1.000000 0.000000
vn 1.000000 0.000000 0.000000
vn 1.000000 0.000000 0.000000
vn 1.000000 0.000000 0.000000
vn 1.000000 0.000000 0.000000
vn 1.000000 0.000000 0.000000
vn 1.000000 0.000000 0.000000
vn 1.000000 0.000000 0.000000
vn 1.000000 0.000000 0.000000
vn 0.000000 0.000001 1.000000
vn 0.000000 0.000001 1.000000
vn 0.000000 0.000001 1.000000
vn 0.000000 0.000001 1.000000
vn 0.000000 0.000001 1.000000
vn 0.000000 0.000001 1.000000
vn -1.000000 0.000000 0.000000
vn -1.000000 0.000000 0.000000
vn -1.000000 0.000000 0.000000
vn -1.000000 0.000000 0.000000
vn 0.000000 -1.000000 0.000000
vn 0.000000 -1.000000 0.000000
vn 0.000000 -1.000000 0.000000
vn 0.000000 -1.000000 0.000000
vn 1.000000 0.000000 0.000000
vn 1.000000 0.000000 0.000000
vn 1.000000 0.000000 0.000000
vn 1.000000 0.000000 0.000000
vn 0.000046 1.000000 0.000000
vn 0.000046 1.000000 0.000000
vn 0.000046 1.000000 0.000000
vn 0.000046 1.000000 0.000000
vn -0.000000 1.000000 0.000000
vn -0.000000 1.000000 0.000000
vn -0.000000 1.000000 0.000000
vn -0.000000 1.000000 0.000000
vn -0.000016 1.000000 0.000000
vn -0.000016 1.000000 0.000000
vn -0.000016 1.000000 0.000000
vn -0.000016 1.000000 0.000000
vn -1.000000 0.000000 0.000000
vn -1.000000 0.000000 0.000000
vn -1.000000 0.000000 0.000000
vn -1.000000 0.000000 0.000000
vn 0.000000 0.000000 1.000000
vn 0.000000 0.000000 1.000000
vn 0.000000 0.000000 1.000000
vn 0.000000 0.000000 1.000000
vn 0.000000 1.000000 0.000000
vn 0.000000 1.000000 0.000000
vn 0.000000 1.000000 0.000000
vn 0.000000 1.000000 0.000000
vn 0.000000 0.000000 -1.000000
vn 0.000000 0.000000 -1.000000
vn 0.000000 0.000000 -1.000000
vn 0.000000 0.000000 -1.000000
vn 0.000000 -1.000000 0.000000
vn 0.000000 -1.000000 0.000000
vn 0.000000 -1.000000 0.000000
vn 0.000000 -1.000000 0.000000
vn 1.000000 0.000000 0.000000
vn 1.000000 0.000000 0.000000
vn 1.000000 0.000000 0.000000
vn 1.000000 0.000000 0.000000
vn -1.000000 0.000000 0.000000
vn -1.000000 0.000000 0.000000
vn -1.000000 0.000000 0.000000
vn -1.000000 0.000000 0.000000
vn 0.000000 0.000000 1.000000
vn 0.000000 0.000000 1.000000
vn 0.000000 0.000000 1.000000
vn 0.000000 0.000000 1.000000
vn 0.000000 1.000000 0.000000
vn 0.000000 1.000000 0.000000
vn 0.000000 1.000000 0.000000
vn 0.000000 1.000000 0.000000
vn 0.000000 0.000000 -1.000000
vn 0.000000 0.000000 -1.000000
vn 0.000000 0.000000 -1.000000
vn 0.000000 0.000000 -1.000000
vn 0.000000 -1.000000 0.000000
vn 0.000000 -1.000000 0.000000
vn 0.000000 -1.000000 0.000000
vn 0.000000 -1.000000 0.000000
vn 1.000000 0.000000 0.000000
vn 1.000000 0.000000 0.000000
vn 1.000000 0.000000 0.000000
vn 1.000000 0.000000 0.000000
vn -1.000000 0.000000 0.000000
vn -1.000000 0.000000 0.000000
vn -1.000000 0.000000 0.000000
vn -1.000000 0.000000 0.000000
vn 0.000000 0.000000 1.000000
vn 0.000000 0.000000 1.000000
vn 0.000000 0.000000 1.000000
vn 0.000000 0.000000 1.000000
vn 0.000000 1.000000 0.000000
vn 0.000000 1.000000 0.000000
vn 0.000000 1.000000 0.000000
vn 0.000000 1.000000 0.000000
vn 0.000000 0.000000 -1.000000
vn 0.000000 0.000000 -1.000000
vn 0.000000 0.000000 -1.000000
vn 0.000000 0.000000 -1.000000
vn 0.000000 -1.000000 0.000000
vn 0.000000 -1.000000 0.000000
vn 0.000000 -1.000000 0.000000
vn 0.000000 -1.000000 0.000000
vn 1.000000 0.000000 0.000000
vn 1.000000 0.000000 0.000000
vn 1.000000 0.000000 0.000000
vn 1.000000 0.000000 0.000000
vn -1.000000 0.000000 0.000000
vn -1.000000 0.000000 0.000000
vn -1.000000 0.000000 0.000000
vn -1.000000 0.000000 0.000000
s off
g Book_Shelf
f 7/1/1 8/2/2 9/3/3 10/4/4
f 11/5/5 12/6/6 13/7/7 14/8/8
f 5/9/9 7/10/10 10/11/11 16/12/12
f 15/13/13 4/14/14 13/7/15 12/15/16 21/16/17
f 8/17/18 22/18/19 17/19/20 6/20/21
f 6/21/22 5/22/23 16/12/24 18/23/25
f 9/24/26 18/23/27 16/12/28 10/11/29
f 14/8/30 13/7/31 4/14/32 19/25/33
f 20/26/34 3/27/35 2/28/36 1/29/37
f 3/30/38 20/31/39 19/25/40 4/14/41
f 8/32/42 6/33/43 18/23/44 9/24/45
f 19/25/46 17/19/47 22/18/48 11/34/49 14/8/50
f 21/16/51 7/35/52 5/36/53 15/13/54
f 24/37/55 23/38/56 25/39/57 26/40/58 27/41/59 28/42/60
f 12/6/61 11/5/62 23/38/63 24/37/64
f 11/5/65 22/43/66 25/44/67 23/38/68
f 22/45/69 8/2/70 26/40/71 25/39/72
f 8/2/73 7/1/74 27/41/75 26/40/76
f 7/1/77 21/46/78 28/42/79 27/41/80
f 21/47/81 12/6/82 24/37/83 28/48/84
f 4/14/85 15/13/86 2/49/87 3/30/88
f 29/50/89 30/51/90 31/52/91 32/53/92 33/54/93 34/55/94
f 17/19/95 19/25/96 20/31/97 1/56/98
f 1/29/99 2/28/100 30/51/101 29/50/102
f 2/49/103 15/13/104 31/57/105 30/58/106
f 15/59/107 5/22/108 32/53/109 31/60/110
f 5/22/111 6/21/112 33/54/113 32/53/114
f 6/21/115 17/61/116 34/62/117 33/54/118
f 17/19/119 1/56/120 29/63/121 34/64/122
f 35/65/123 36/66/124 38/67/125 37/68/126
f 37/68/127 38/67/128 40/69/129 39/70/130
f 39/70/131 40/69/132 42/71/133 41/72/134
f 41/72/135 42/71/136 36/73/137 35/74/138
f 36/75/139 42/76/140 40/69/141 38/67/142
f 41/77/143 35/78/144 37/68/145 39/70/146
f 43/79/147 44/80/148 46/81/149 45/82/150
f 45/82/151 46/81/152 48/83/153 47/84/154
f 47/84/155 48/83/156 50/85/157 49/86/158
f 49/86/159 50/85/160 44/87/161 43/88/162
f 44/89/163 50/90/164 48/83/165 46/81/166
f 49/91/167 43/92/168 45/82/169 47/84/170
f 51/93/171 52/94/172 54/95/173 53/96/174
f 53/96/175 54/95/176 56/97/177 55/98/178
f 55/98/179 56/97/180 58/99/181 57/100/182
f 57/100/183 58/99/184 52/101/185 51/102/186
f 52/103/187 58/104/188 56/97/189 54/95/190
f 57/105/191 51/106/192 53/96/193 55/98/194
